<?xml version="1.0" encoding="utf-8"?>
<!-- Generator: Adobe Illustrator 16.0.0, SVG Export Plug-In . SVG Version: 6.00 Build 0)  -->
<!DOCTYPE svg PUBLIC "-//W3C//DTD SVG 1.1//EN" "http://www.w3.org/Graphics/SVG/1.1/DTD/svg11.dtd">
<svg version="1.1" id="Layer_1" xmlns="http://www.w3.org/2000/svg" xmlns:xlink="http://www.w3.org/1999/xlink" x="0px" y="0px"
	 width="397px" height="309px" viewBox="0 0 397 309" enable-background="new 0 0 397 309" xml:space="preserve">
<g>
	<g>
		<g>
			<line fill="#48C6D3" x1="384.732" y1="47.184" x2="251.678" y2="124.305"/>
			<g>
				<path fill="#39E5D8" d="M382.209,42.867c-42.17,24.442-84.34,48.884-126.51,73.327c-2.181,1.265-4.363,2.529-6.545,3.794
					c-5.576,3.231-0.543,11.875,5.047,8.635c42.17-24.442,84.34-48.884,126.51-73.327c2.182-1.265,4.363-2.529,6.545-3.794
					C392.831,48.27,387.799,39.626,382.209,42.867L382.209,42.867z"/>
			</g>
		</g>
		<g>
			<g>
				<path fill="#39E5D8" d="M277.647,102.488c-10.476-3.997-20.95-7.994-31.426-11.99c-6.036-2.303-8.621,7.368-2.658,9.643
					c10.476,3.997,20.95,7.994,31.426,11.99C281.024,114.434,283.61,104.763,277.647,102.488L277.647,102.488z"/>
			</g>
		</g>
		<g>
			<g>
				<path fill="#39E5D8" d="M393.193,69.629c-9.878-3.997-19.756-7.994-29.634-11.99c-5.981-2.42-8.556,7.256-2.658,9.643
					c9.878,3.997,19.756,7.994,29.634,11.99C396.517,81.692,399.091,72.015,393.193,69.629L393.193,69.629z"/>
			</g>
		</g>
		<g>
			<g>
				<path fill="#39E5D8" d="M366.343,55.28c0.278-10.596,0.556-21.191,0.834-31.787c0.169-6.453-9.831-6.436-10,0
					c-0.278,10.596-0.556,21.191-0.834,31.787C356.174,61.733,366.174,61.716,366.343,55.28L366.343,55.28z"/>
			</g>
		</g>
		<g>
			<g>
				<path fill="#39E5D8" d="M281.318,143.25c0.492-9.956,0.984-19.912,1.477-29.868c0.318-6.448-9.683-6.417-10,0
					c-0.492,9.956-0.984,19.912-1.477,29.868C271,149.698,281.001,149.667,281.318,143.25L281.318,143.25z"/>
			</g>
		</g>
	</g>
	<g>
		<g>
			<line fill="#48C6D3" x1="317.149" y1="6.825" x2="317.686" y2="160.612"/>
			<g>
				<path fill="#39E5D8" d="M312.149,6.825c0.17,48.741,0.34,97.481,0.51,146.222c0.009,2.522,0.018,5.043,0.026,7.565
					c0.022,6.447,10.022,6.45,10,0c-0.17-48.741-0.34-97.481-0.51-146.222c-0.009-2.522-0.018-5.043-0.026-7.565
					C322.127,0.377,312.127,0.375,312.149,6.825L312.149,6.825z"/>
			</g>
		</g>
		<g>
			<g>
				<path fill="#39E5D8" d="M316.393,134.298c8.735,7.028,17.471,14.057,26.207,21.086c4.973,4.001,12.096-3.028,7.07-7.071
					c-8.735-7.028-17.471-14.057-26.207-21.086C318.49,123.226,311.367,130.255,316.393,134.298L316.393,134.298z"/>
			</g>
		</g>
		<g>
			<g>
				<path fill="#39E5D8" d="M287.485,18.739c8.434,6.512,16.868,13.025,25.302,19.537c5.104,3.941,10.073-4.753,5.047-8.635
					c-8.434-6.512-16.867-13.025-25.302-19.537C287.428,6.163,282.459,14.858,287.485,18.739L287.485,18.739z"/>
			</g>
		</g>
		<g>
			<g>
				<path fill="#39E5D8" d="M324.482,35.421c9.008-5.585,18.017-11.17,27.024-16.756c5.468-3.39,0.45-12.043-5.047-8.635
					c-9.009,5.585-18.017,11.17-27.024,16.756C313.968,30.176,318.985,38.83,324.482,35.421L324.482,35.421z"/>
			</g>
		</g>
		<g>
			<g>
				<path fill="#39E5D8" d="M291.42,153.212c8.348-5.448,16.696-10.895,25.044-16.343c5.377-3.509,0.371-12.17-5.047-8.635
					c-8.349,5.448-16.696,10.895-25.044,16.343C280.996,148.086,286.002,156.748,291.42,153.212L291.42,153.212z"/>
			</g>
		</g>
	</g>
	<g>
		<g>
			<line fill="#48C6D3" x1="252.025" y1="47.184" x2="385.078" y2="124.305"/>
			<g>
				<path fill="#39E5D8" d="M249.502,51.501c42.169,24.442,84.338,48.884,126.507,73.327c2.182,1.265,4.364,2.529,6.546,3.794
					c5.59,3.24,10.622-5.403,5.047-8.635c-42.169-24.442-84.338-48.884-126.507-73.327c-2.182-1.265-4.364-2.529-6.546-3.794
					C248.959,39.626,243.926,48.27,249.502,51.501L249.502,51.501z"/>
			</g>
		</g>
		<g>
			<g>
				<path fill="#39E5D8" d="M361.767,112.131c10.476-3.997,20.951-7.993,31.427-11.99c5.963-2.275,3.377-11.945-2.658-9.643
					c-10.476,3.997-20.951,7.993-31.427,11.99C353.146,104.763,355.731,114.434,361.767,112.131L361.767,112.131z"/>
			</g>
		</g>
		<g>
			<g>
				<path fill="#39E5D8" d="M246.222,79.271c9.878-3.997,19.755-7.993,29.633-11.99c5.897-2.386,3.323-12.063-2.658-9.643
					c-9.878,3.997-19.755,7.993-29.633,11.99C237.666,72.015,240.24,81.692,246.222,79.271L246.222,79.271z"/>
			</g>
		</g>
		<g>
			<g>
				<path fill="#39E5D8" d="M280.414,55.28c-0.278-10.596-0.556-21.191-0.834-31.787c-0.169-6.436-10.169-6.453-10,0
					c0.278,10.596,0.556,21.191,0.834,31.787C270.583,61.716,280.583,61.733,280.414,55.28L280.414,55.28z"/>
			</g>
		</g>
		<g>
			<g>
				<path fill="#39E5D8" d="M365.438,143.25c-0.492-9.956-0.983-19.912-1.476-29.868c-0.317-6.417-10.318-6.448-10,0
					c0.492,9.956,0.983,19.912,1.476,29.868C355.755,149.667,365.756,149.698,365.438,143.25L365.438,143.25z"/>
			</g>
		</g>
	</g>
</g>
<g>
	<g>
		<g>
			<path fill="#1F2128" d="M34.393,109.679c-4.634,0.647-0.353,0.058,1.043-0.1c2.917-0.33,5.842-0.597,8.768-0.828
				c9.206-0.724,18.454-1,27.685-0.736c5.342,0.152,10.678,0.529,15.985,1.162c0.492,0.059,2.716,0.364,0.154,0.011
				c0.634,0.087,1.266,0.184,1.898,0.28c1.254,0.192,2.504,0.412,3.752,0.643c2.64,0.489,5.257,1.095,7.848,1.799
				c2.288,0.622,4.541,1.366,6.757,2.208c0.499,0.189,2.391,0.985-0.031-0.044c0.518,0.22,1.029,0.456,1.54,0.692
				c1.163,0.538,2.295,1.137,3.411,1.767c0.925,0.522,1.82,1.097,2.701,1.691c2.462,1.662-0.658-0.648,1.043,0.784
				c0.769,0.647,1.488,1.35,2.186,2.072c0.344,0.356,0.669,0.731,0.993,1.106c1.023,1.184-1.309-1.85,0.09,0.128
				c0.568,0.803,1.061,1.655,1.524,2.521c1.39,2.597-0.292-1.085,0.468,1.051c0.345,0.969,0.593,1.969,0.811,2.974
				c0.129,0.596,0.384,2.51,0.019-0.288c0.096,0.731,0.138,1.469,0.174,2.205c0.058,1.167,0.011,2.336-0.064,3.5
				c-0.033,0.518-0.294,2.646,0.053,0.073c-0.087,0.643-0.206,1.281-0.324,1.919c-0.575,3.096-1.56,6.107-2.687,9.042
				c-0.953,2.483,0.746-1.641-0.359,0.877c-0.347,0.791-0.72,1.569-1.093,2.348c-0.795,1.663-1.67,3.288-2.563,4.9
				c-2.216,4.004-4.739,7.836-7.363,11.583c-4.446,6.348-9.663,11.979-14.491,18.013c-16.175,20.216-32.362,40.422-48.566,60.614
				c-12.994,16.192-25.839,32.528-39.117,48.489C1.808,297.939,4.609,307.5,13,307.5c36.667,0,73.333,0,110,0
				c11.607,0,11.607-18,0-18c-36.667,0-73.333,0-110,0c2.121,5.121,4.243,10.242,6.364,15.364
				c17.565-21.113,34.525-42.754,51.704-64.181c15.521-19.36,31.557-38.407,46.83-57.952c15.459-19.785,35.228-51.553,13.962-74.378
				c-14.574-15.643-40.618-17.785-60.6-18.355c-13.888-0.396-27.889,0.4-41.652,2.324c-4.868,0.681-7.458,6.811-6.286,11.071
				C24.748,108.576,29.538,110.357,34.393,109.679L34.393,109.679z"/>
		</g>
	</g>
	<g>
		<g>
			<g>
				<path fill="#1F2128" d="M279,302.208c1.435-48.921,2.869-97.841,4.304-146.761c0.565-19.274,1.131-38.549,1.696-57.823
					c0.341-11.614-17.66-11.581-18,0c-1.435,48.92-2.869,97.841-4.304,146.761c-0.565,19.274-1.131,38.549-1.696,57.823
					C260.659,313.822,278.66,313.789,279,302.208L279,302.208z"/>
			</g>
		</g>
		<g>
			<g>
				<path fill="#1F2128" d="M270,187.916c-31.498-0.87-62.996-1.74-94.494-2.61c2.893,3.798,5.786,7.595,8.679,11.393
					c12.831-33.028,25.663-66.056,38.494-99.083c1.779-4.579-1.92-9.87-6.286-11.071c-5.096-1.401-9.296,1.717-11.071,6.286
					c-12.831,33.028-25.663,66.056-38.494,99.083c-2.199,5.66,3.318,11.244,8.679,11.393c31.498,0.87,62.996,1.74,94.494,2.61
					C281.614,206.237,281.583,188.236,270,187.916L270,187.916z"/>
			</g>
		</g>
	</g>
</g>
</svg>
