<?xml version="1.0" encoding="utf-8"?>
<!-- Generator: Adobe Illustrator 16.0.0, SVG Export Plug-In . SVG Version: 6.00 Build 0)  -->
<!DOCTYPE svg PUBLIC "-//W3C//DTD SVG 1.1//EN" "http://www.w3.org/Graphics/SVG/1.1/DTD/svg11.dtd">
<svg version="1.1" id="Layer_1" xmlns="http://www.w3.org/2000/svg" xmlns:xlink="http://www.w3.org/1999/xlink" x="0px" y="0px"
	 width="397px" height="309px" viewBox="0 0 397 309" enable-background="new 0 0 397 309" xml:space="preserve">
<g>
	<rect x="10" y="18" fill="none" stroke="#1F2128" stroke-width="6" stroke-miterlimit="10" width="369" height="144"/>
	<line fill="none" stroke="#1F2128" stroke-width="6" stroke-miterlimit="10" x1="47" y1="109" x2="344" y2="109"/>
	<line fill="none" stroke="#1F2128" stroke-width="6" stroke-miterlimit="10" x1="47" y1="135" x2="344" y2="135"/>
	<line fill="none" stroke="#D11338" stroke-width="6" stroke-miterlimit="10" x1="319" y1="44" x2="305" y2="44"/>
	<line fill="none" stroke="#25B755" stroke-width="6" stroke-miterlimit="10" x1="345" y1="44" x2="331" y2="44"/>
</g>
<line fill="none" stroke="#1F2128" stroke-miterlimit="10" x1="-45" y1="-28.5" x2="-46" y2="-28.5"/>
<g>
	<path fill="none" stroke="#3FC9FF" stroke-width="7" stroke-miterlimit="10" d="M99,187c0,0-15,8,0,25s-2,21,0,24"/>
	<path fill="none" stroke="#3FC9FF" stroke-width="7" stroke-miterlimit="10" d="M100.868,232.999c0,0-14.957,8.081,0.135,25
		c15.091,16.919,4.241,18.294,0.129,23.999"/>
</g>
<g>
	<path fill="none" stroke="#3FC9FF" stroke-width="7" stroke-miterlimit="10" d="M159,185c0,0-15,8,0,25s-2,21,0,24"/>
	<path fill="none" stroke="#3FC9FF" stroke-width="7" stroke-miterlimit="10" d="M160.868,230.999c0,0-14.957,8.081,0.135,25
		c15.091,16.919,4.241,18.294,0.129,23.999"/>
</g>
<g>
	<path fill="none" stroke="#3FC9FF" stroke-width="7" stroke-miterlimit="10" d="M217,189c0,0-15,8,0,25s-2,21,0,24"/>
	<path fill="none" stroke="#3FC9FF" stroke-width="7" stroke-miterlimit="10" d="M218.868,234.999c0,0-14.957,8.081,0.135,25
		c15.091,16.919,4.241,18.294,0.129,23.999"/>
</g>
<g>
	<path fill="none" stroke="#3FC9FF" stroke-width="7" stroke-miterlimit="10" d="M276,191c0,0-15,8,0,25s-2,21,0,24"/>
	<path fill="none" stroke="#3FC9FF" stroke-width="7" stroke-miterlimit="10" d="M277.867,236.999c0,0-14.956,8.081,0.136,25
		c15.091,16.919,4.241,18.294,0.13,23.999"/>
</g>
</svg>
